<?xml version="1.0" standalone="no"?>
<!DOCTYPE svg PUBLIC "-//W3C//DTD SVG 20010904//EN"
 "http://www.w3.org/TR/2001/REC-SVG-20010904/DTD/svg10.dtd">
<svg version="1.0" xmlns="http://www.w3.org/2000/svg"
 width="100.000000pt" height="100.000000pt" viewBox="0 0 100.000000 100.000000"
 preserveAspectRatio="xMidYMid meet">

<g transform="translate(0.000000,100.000000) scale(0.100000,-0.100000)"
fill="#000000" stroke="none">
<path d="M202 748 c-15 -15 -15 -61 0 -76 7 -7 24 -12 38 -12 14 0 31 5 38 12
15 15 15 61 0 76 -15 15 -61 15 -76 0z"/>
<path d="M200 431 c0 -215 -5 -241 -49 -241 -24 0 -31 -5 -36 -30 -9 -41 0
-50 46 -50 46 0 94 22 109 49 6 12 10 108 10 240 l0 221 -40 0 -40 0 0 -189z"/>
<path d="M350 614 c0 -4 15 -70 34 -148 19 -77 37 -156 41 -174 6 -31 9 -32
54 -32 l47 0 28 118 c16 64 32 121 36 126 5 5 14 -11 20 -35 6 -24 22 -80 34
-124 l23 -80 45 -3 45 -3 42 173 c23 95 41 176 41 181 0 4 -16 7 -35 7 -43 0
-45 -5 -71 -147 -10 -57 -21 -103 -25 -103 -6 0 -28 70 -61 195 -13 49 -14 50
-53 50 l-39 0 -30 -117 c-17 -64 -34 -119 -38 -123 -8 -8 -13 10 -33 120 -23
130 -21 125 -66 125 -21 0 -39 -3 -39 -6z"/>
</g>
</svg>
