<?xml version="1.0" standalone="no"?>
<!DOCTYPE svg PUBLIC "-//W3C//DTD SVG 20010904//EN"
 "http://www.w3.org/TR/2001/REC-SVG-20010904/DTD/svg10.dtd">
<svg version="1.0" xmlns="http://www.w3.org/2000/svg"
 width="100.000000pt" height="100.000000pt" viewBox="0 0 100.000000 100.000000"
 preserveAspectRatio="xMidYMid meet">

<g transform="translate(0.000000,100.000000) scale(0.100000,-0.100000)"
fill="#000000" stroke="none">
<path d="M230 559 c0 -181 -5 -204 -46 -219 -32 -12 -88 9 -104 40 l-12 22
-29 -28 c-37 -35 -36 -46 1 -78 61 -51 170 -58 224 -15 51 40 56 63 56 264 l0
185 -45 0 -45 0 0 -171z"/>
<path d="M400 719 c0 -6 23 -110 50 -230 28 -120 50 -221 50 -224 0 -3 24 -5
54 -5 l54 0 37 150 c20 82 41 148 44 145 4 -2 25 -70 46 -150 l39 -145 52 0
52 0 32 138 c18 75 42 181 55 235 l22 98 -46 -3 -46 -3 -34 -162 c-19 -90 -37
-160 -40 -157 -3 3 -24 76 -47 162 l-41 157 -41 3 c-47 4 -36 27 -93 -202 -19
-75 -35 -122 -39 -115 -6 11 -70 299 -70 315 0 2 -20 4 -45 4 -27 0 -45 -5
-45 -11z"/>
</g>
</svg>
